<!-- icon666.com - MILLIONS vector ICONS FREE --><svg viewBox="0 0 96 96" xmlns="http://www.w3.org/2000/svg"><g id="Attachment"><path d="m77.4 24v67a4.42 4.42 0 0 1 -4.4 4.41h-59.5a4.42 4.42 0 0 1 -4.41-4.41v-81.09a4.4 4.4 0 0 1 4.41-4.41h45.39z" fill="#a0abff"></path><path d="m86.91 24v67a4.42 4.42 0 0 1 -4.41 4.41h-59.5a4.42 4.42 0 0 1 -4.4-4.41v-81.09a4.4 4.4 0 0 1 4.4-4.41h45.4z" fill="#dcf1ff"></path><path d="m41.64 33.37-.37.38a6.65 6.65 0 0 0 -2 4.71v24.34a6.64 6.64 0 0 0 9.33 6.1c12.62-5.71 19.55-17 19.55-29.79v-1a6.66 6.66 0 0 0 -6.66-6.66h-15.14a6.67 6.67 0 0 0 -4.71 1.92z" fill="#fff"></path><path d="m32.35 5.5-13.81 13.8v-4.51l9.29-9.29z" fill="#fff"></path><path d="m47.58 5.5-29.04 29.03v-9.65l19.38-19.38z" fill="#fff"></path><path d="m86.91 30.7v60.36a4.43 4.43 0 0 1 -4.43 4.42h-59.48a4.42 4.42 0 0 1 -4.42-4.42v-31.16a2.45 2.45 0 0 1 .7-1.7 2.4 2.4 0 0 1 4.09 1.7v23.1a7.19 7.19 0 0 0 8.24 7.09c27.16-3.79 50.51-26.72 50.51-59.39a2.4 2.4 0 0 1 4.79 0z" fill="#b9ceff"></path><path d="m86.91 59.79v4.12l-31.56 31.57h-4.13z" fill="#a0abff"></path><path d="m86.91 67.31v23.75a4.43 4.43 0 0 1 -4.43 4.42h-23.74z" fill="#a0abff"></path><path d="m86.91 24h-14.1a4.41 4.41 0 0 1 -4.41-4.41v-14.09z" fill="#b4c4ff"></path><g fill="#4f467d"><path d="m77.78 75.88h-50a1 1 0 0 1 0-2h50a1 1 0 0 1 0 2z"></path><path d="m52.76 83.34h-25a1 1 0 0 1 0-2h25a1 1 0 0 1 0 2z"></path><path d="m77.78 38.59h-50a1 1 0 0 1 0-2h50a1 1 0 0 1 0 2z"></path><path d="m77.78 46.05h-50a1 1 0 0 1 0-2h50a1 1 0 0 1 0 2z"></path><path d="m77.78 53.51h-50a1 1 0 1 1 0-2h50a1 1 0 0 1 0 2z"></path><path d="m77.78 61h-50a1 1 0 0 1 0-2h50a1 1 0 0 1 0 2z"></path><path d="m77.78 68.43h-50a1 1 0 0 1 0-2h50a1 1 0 0 1 0 2z"></path></g><path d="m37.36 10.84v6.43a6.46 6.46 0 0 1 -12.91 0v-10.27a6.46 6.46 0 0 1 12.67-1.78.86.86 0 0 1 0 .28h-2a4.46 4.46 0 0 0 -8.67 1.5v10.3a4.46 4.46 0 0 0 8.91 0v-6.46a1.73 1.73 0 1 0 -3.45 0v6a1 1 0 0 1 -2 0v-6a3.73 3.73 0 1 1 7.45 0z" fill="#7278a5"></path></g></svg>