<!-- icon666.com - MILLIONS vector ICONS FREE --><svg viewBox="0 0 64 64" xmlns="http://www.w3.org/2000/svg"><circle cx="29" cy="30" fill="#4aa5ff" r="26"></circle><g fill="#e6f3ff"><path d="m11.67419 41.09253c-.23346-1.09143-.67694-2.13416-.845-3.23749a3.58208 3.58208 0 0 1 .79486-3.122c1.268-1.22943 3.34638-.72583 5.01416-.14465 1.66779.58124 3.74884 1.0802 5.01209-.15417 1.10449-1.07923.90881-2.94288.20538-4.31757s-1.81195-2.52252-2.42315-3.94067a6.42641 6.42641 0 0 1 .5028-5.93586c.97657-1.50366 2.55725-2.54174 3.51081-4.06012a8.2717 8.2717 0 0 0 .20807-7.48346 16.64606 16.64606 0 0 0 -2.15259-3.59393 25.99246 25.99246 0 0 0 -11.29373 42.85491 8.83859 8.83859 0 0 0 1.4663-6.86499z"></path><path d="m43.72717 27.35516c-1.757.18964-3.04187-1.629-3.61932-3.29925-.57739-1.67017-.99725-3.60779-2.49432-4.54682-1.98426-1.24456-4.76423.18683-5.78663 2.29419-1.02233 2.10743-.7926 4.57978-.53991 6.90839q.47112 4.34226.94238 8.68451c.18561 1.71057.287 3.67731-.93054 4.89307-1.522 1.51959-4.17121.953-6.03168 2.0321a5.11034 5.11034 0 0 0 -2.24585 4.35547 15.0752 15.0752 0 0 0 1.03613 4.98932q.32529.98748.65064 1.97491a26.00612 26.00612 0 0 0 29.0647-33.54516 13.09209 13.09209 0 0 0 -7.16791 3.35327c-.85553.80328-1.71094 1.78003-2.87769 1.906z"></path><rect height="23" rx="2" width="32" x="29" y="37"></rect></g><path d="m29 41.5h32v6h-32z" fill="#4aa5ff"></path><path d="m59 35.96722h-3.67932c5.01132-22.05615-17.80133-40.15649-38.133-30.27322-24.87868 12.50394-17.50201 49.77158 10.81232 51.24808v1.02514a3.00328 3.00328 0 0 0 3 3h28a3.00328 3.00328 0 0 0 3-3v-19a3.00328 3.00328 0 0 0 -3-3zm-5.74023 0h-20.17261l-.80347-7.40136c-.271-2.42578-.42431-4.5791.4458-6.36231.8006-1.48724 2.59784-2.803 4.34906-1.879 1.157.698 1.58386 2.58686 2.08649 4.0304.7207 2.07519 2.32373 4.19531 4.67627 3.9668 1.52667-.18177 2.47314-1.26007 3.44336-2.17481a10.10882 10.10882 0 0 1 5.81885-2.80859 24.79145 24.79145 0 0 1 .15625 12.62887zm-43.41944 2.006c.69824 2.76025 1.7096 5.54992.20069 8.27917-11.64079-13.17874-5.50655-34.67239 11.08404-40.00715 2.07446 2.66681 3.19483 6.75043 1.47443 9.36945-.94483 1.46777-2.52649 2.51239-3.50281 4.04785a7.39312 7.39312 0 0 0 -.58252 6.876c.62885 1.48017 1.7384 2.6333 2.45117 4.002 1.41736 3.058-.42084 4.4848-3.99756 3.07116-3.09106-1.33063-7.78149-.9347-7.12744 4.36151zm18.15967 16.96849a21.42934 21.42934 0 0 1 -2.53632-.23584c-1.37017-3.60919-3.17944-9.722 2.53632-10.188zm0-15.97449v3.52185c-6.62213.55317-6.85223 6.71857-4.7854 11.78a24.83975 24.83975 0 0 1 -11.7566-6.45193 9.85335 9.85335 0 0 0 1.19434-6.96614c-1.14813-3.55352-1.97882-7.3623 3.65693-5.35058 1.13946.39746 4.16436 1.45117 6.03985-.38379 1.47656-1.44238 1.26318-3.7959.39649-5.48731-.687-1.3703-1.80054-2.52942-2.39454-3.88183-1.09875-2.47974.03351-5.14612 2.02308-6.82514 3.96844-3.167 3.847-9.06665.77392-13.25665a25.00766 25.00766 0 0 1 29.2785 15.63135 14.0133 14.0133 0 0 0 -6.51157 3.39185c-.69208.65-1.52307 1.5763-2.28662 1.64356-1.36261.17608-2.43225-1.91876-2.82172-3.38-.50787-1.56146-1.08307-3.331-2.66315-4.32122-2.49218-1.61042-6.03277.15686-7.21185 2.69726-1.19537 2.44727-.88482 5.22656-.6358 7.45606l.77966 7.18261a3.00621 3.00621 0 0 0 -3.07552 3.00005zm32 19a1.001 1.001 0 0 1 -1 1h-28a1.001 1.001 0 0 1 -1-1v-19a1.001 1.001 0 0 1 1-1h28a1.001 1.001 0 0 1 1 1z" fill="#21257c"></path><path d="m32.5 50.96722h7a1.00019 1.00019 0 0 1 -.00006 2h-6.99994a1.00019 1.00019 0 0 1 0-2z" fill="#4aa5ff"></path><path d="m32.5 54.96722h4a1.00018 1.00018 0 0 1 -.00006 2h-3.99994a1.00019 1.00019 0 0 1 0-2z" fill="#4aa5ff"></path><rect fill="#21257c" height="3" rx="1" width="5" x="53" y="54"></rect></svg>