<!-- icon666.com - MILLIONS vector ICONS FREE --><svg id="_x31_08" enable-background="new 0 0 512 512" viewBox="0 0 512 512" xmlns="http://www.w3.org/2000/svg"><path id="Background" d="m256 6c138.1 0 250 111.9 250 250 0 138.1-111.9 250-250 250-138.1 0-250-111.9-250-250 0-138.1 111.9-250 250-250z" fill="#2196f3"></path><g id="_x31_08_1_" fill="#fff"><path id="Arrow02_5_" d="m190.2 227.3 76.4-66c6.7-5.7 17.2-1.1 17.2 7.9v35.9c56 4.4 97.2 22.7 97.2 79.7 0 26.6-17.2 53-36.2 66.8-5.9 4.3-14.4-1.1-12.2-8.1 16.7-53.4-1.7-73.6-48.9-79v36.6c0 9-10.5 13.7-17.2 7.9l-76.4-66c-4.8-4.1-4.8-11.5.1-15.7z"></path><path id="Arrow01_5_" d="m134.6 243 76.4 66c6.6 5.7 17.2 1.1 17.2-7.9 0-4.3-1.9-8.5-5.2-11.3l-41.9-36.2c-5.4-4.6-8.4-11.3-8.4-18.4s3.1-13.8 8.4-18.4l41.9-36.2c3.3-2.8 5.2-7 5.2-11.3 0-9-10.5-13.7-17.2-7.9l-76.4 66c-4.8 4.1-4.8 11.5 0 15.6z"></path></g></svg>