<!-- icon666.com - MILLIONS vector ICONS FREE --><svg viewBox="0 0 24 24" xmlns="http://www.w3.org/2000/svg"><g id="Layer_2" data-name="Layer 2"><path d="m21.147 5.983-2.96-3.7a2.739 2.739 0 0 0 -2.148-1.033h-11.039a2.752 2.752 0 0 0 -2.75 2.75v16a2.752 2.752 0 0 0 2.75 2.75h14a2.752 2.752 0 0 0 2.75-2.75v-12.3a2.757 2.757 0 0 0 -.603-1.717z" fill="#8dd1ff"></path><path d="m8 6.75h6a1.751 1.751 0 0 0 1.75-1.75v-3.75h-9.5v3.75a1.751 1.751 0 0 0 1.75 1.75z" fill="#fff"></path><path d="m17 12.25h-10a1.751 1.751 0 0 0 -1.75 1.75v8.75h13.5v-8.75a1.751 1.751 0 0 0 -1.75-1.75z" fill="#fff"></path><path d="m15 16.75h-6a.75.75 0 0 1 0-1.5h6a.75.75 0 0 1 0 1.5z" fill="#3e96ed"></path><path d="m15 19.75h-6a.75.75 0 0 1 0-1.5h6a.75.75 0 0 1 0 1.5z" fill="#3e96ed"></path><g fill="#004fac"><path d="m19 22.75h-14a2.752 2.752 0 0 1 -2.75-2.75v-16a2.752 2.752 0 0 1 2.75-2.75h11.039a2.739 2.739 0 0 1 2.147 1.032l2.961 3.7a2.753 2.753 0 0 1 .6 1.718v12.3a2.752 2.752 0 0 1 -2.747 2.75zm-14-20a1.252 1.252 0 0 0 -1.25 1.25v16a1.252 1.252 0 0 0 1.25 1.25h14a1.252 1.252 0 0 0 1.25-1.25v-12.3a1.262 1.262 0 0 0 -.273-.781l-2.962-3.7a1.244 1.244 0 0 0 -.976-.469z"></path><path d="m14 6.75h-6a1.752 1.752 0 0 1 -1.75-1.75v-3a.75.75 0 0 1 .75-.75h8a.75.75 0 0 1 .75.75v3a1.752 1.752 0 0 1 -1.75 1.75zm-6.25-4v2.25a.25.25 0 0 0 .25.25h6a.25.25 0 0 0 .25-.25v-2.25z"></path><path d="m18 22.75h-12a.75.75 0 0 1 -.75-.75v-8a1.752 1.752 0 0 1 1.75-1.75h10a1.752 1.752 0 0 1 1.75 1.75v5a.75.75 0 0 1 -1.5 0v-5a.25.25 0 0 0 -.25-.25h-10a.25.25 0 0 0 -.25.25v7.25h11.25a.75.75 0 0 1 0 1.5z"></path></g></g></svg>