<!-- icon666.com - MILLIONS vector ICONS FREE --><svg viewBox="0 0 64 64" xmlns="http://www.w3.org/2000/svg" xmlns:xlink="http://www.w3.org/1999/xlink"><linearGradient id="linear-gradient" gradientUnits="userSpaceOnUse" x1="3.25" x2="60.75" y1="32" y2="32"><stop offset="0" stop-color="#5bb4f6"></stop><stop offset=".61" stop-color="#2191e5"></stop><stop offset="1" stop-color="#007edb"></stop></linearGradient><g id="Layer_97" data-name="Layer 97"><circle cx="32" cy="32" fill="url(#linear-gradient)" r="28.75" style="fill: rgb(57, 201, 29);"></circle><g fill="#fff"><path d="m49.39 13.86h-21.74a.75.75 0 0 0 0 1.5h21v21a.75.75 0 1 0 1.5 0v-21.75a.74.74 0 0 0 -.76-.75z" fill="#fff"></path><path d="m44.42 18.83h-29.81a.74.74 0 0 0 -.75.75v29.81a.74.74 0 0 0 .75.75h29.81a.74.74 0 0 0 .75-.75v-29.81a.74.74 0 0 0 -.75-.75zm-.75 29.81h-28.31v-28.31h28.31z" fill="#fff"></path><path d="m21.75 35.24h7v7a.75.75 0 0 0 1.5 0v-7h7a.75.75 0 0 0 0-1.5h-7v-7a.75.75 0 0 0 -1.5 0v7h-7a.75.75 0 0 0 0 1.5z" fill="#fff"></path></g></g></svg>