<!-- icon666.com - MILLIONS vector ICONS FREE --><svg id="Layer_1" enable-background="new 0 0 512 512" viewBox="0 0 512 512" xmlns="http://www.w3.org/2000/svg"><circle cx="256" cy="256" fill="#9be826" r="256"></circle><path d="m512 256c0-141.159-114.841-256-256-256v512c141.159 0 256-114.841 256-256z" fill="#4cc65e"></path><path d="m256 415.6c-25.989 0-47.134-21.144-47.134-47.133v-65.333h-65.333c-25.989 0-47.133-21.145-47.133-47.134s21.144-47.134 47.133-47.134h65.333v-65.333c0-25.989 21.145-47.133 47.134-47.133s47.134 21.144 47.134 47.133v65.333h65.333c25.989 0 47.133 21.145 47.133 47.134s-21.144 47.134-47.133 47.134h-65.333v65.333c0 25.989-21.145 47.133-47.134 47.133z" fill="#fff"></path><path d="m303.134 368.467v-65.333h65.333c25.989 0 47.133-21.145 47.133-47.134s-21.144-47.134-47.133-47.134h-65.333v-65.333c0-25.989-21.145-47.133-47.134-47.133v319.2c25.989 0 47.134-21.144 47.134-47.133z" fill="#e6f7ff"></path></svg>