<!-- icon666.com - MILLIONS vector ICONS FREE --><svg viewBox="-16 0 512 512" xmlns="http://www.w3.org/2000/svg"><path d="m60 421-27.5 30-32.5-30v-60h60l30 30zm0 0" fill="#fdbf00"></path><path d="m480 421-31.25 30-28.75-30-30-32.5 30-27.5h60zm0 0" fill="#ff9100"></path><path d="m420 0v451h-360v-331l120-120zm0 0" fill="#ececf1"></path><g fill="#d3d3d8"><path d="m240 0h180v451h-180zm0 0"></path><path d="m120 331h90v30h-90zm0 0"></path><path d="m120 271h240v30h-240zm0 0"></path><path d="m120 211h240v30h-240zm0 0"></path><path d="m120 150h240v30h-240zm0 0"></path></g><path d="m240 90h90v30h-90zm0 0" fill="#3e5959"></path><path d="m0 421h480v91h-480zm0 0" fill="#ffda2d"></path><path d="m240 421h240v91h-240zm0 0" fill="#fdbf00"></path><path d="m180 0h-21.210938l-98.789062 98.789062v21.210938h120zm0 0" fill="#d3d3d8"></path><path d="m240 150h120v30h-120zm0 0" fill="#babac0"></path><path d="m240 211h120v30h-120zm0 0" fill="#babac0"></path><path d="m240 271h120v30h-120zm0 0" fill="#babac0"></path></svg>